# xmcd CD database file
#
# Track frame offsets:
#	150
#	26837
#	48737
#
# Disc length: 951 seconds
#
# Revision: 0
# Processed by: cddbd v1.5PL3 Copyright (c) Steve Scherf et al.
# Submitted via: CDex 1.50beta10
#
DISCID=2403b503
DTITLE=DATA EAST/STUDIO LINE - 慟哭そして・・・ ミニドラマCD
DYEAR=1998
DGENRE=Game
TTITLE0=ファースト・ラヴ（笹本梨代、椎名真理絵 編）
TTITLE1=二人のマス・ゲーム（ノーマ・ウェンディ、神田川国昭 編）
TTITLE2=冬の夜・旅館にて（青木千砂・羽鳥いつみ 編）
EXTD=YEAR: 1998
EXTT0=
EXTT1=
EXTT2=
PLAYORDER=
